<!-- main text & logo color: #0369a1 -->

<svg xmlns="http://www.w3.org/2000/svg" xmlns:xlink="http://www.w3.org/1999/xlink" width="222" zoomAndPan="magnify" viewBox="0 0 166.5 44.999999" height="60" preserveAspectRatio="xMidYMid meet" version="1.0"><defs><g/><clipPath id="c6e37f1828"><path d="M 33 5 L 36.210938 5 L 36.210938 9 L 33 9 Z M 33 5 " clip-rule="nonzero"/></clipPath><clipPath id="d18e418f0f"><path d="M 31 2.789062 L 34 2.789062 L 34 5 L 31 5 Z M 31 2.789062 " clip-rule="nonzero"/></clipPath><clipPath id="cf1a5f7705"><path d="M 9.582031 8 L 23 8 L 23 34 L 9.582031 34 Z M 9.582031 8 " clip-rule="nonzero"/></clipPath><clipPath id="96afa37ee9"><path d="M 9.582031 34 L 13 34 L 13 37 L 9.582031 37 Z M 9.582031 34 " clip-rule="nonzero"/></clipPath><clipPath id="c194d5da30"><path d="M 9.582031 28 L 12 28 L 12 31 L 9.582031 31 Z M 9.582031 28 " clip-rule="nonzero"/></clipPath><clipPath id="379975c83a"><path d="M 12 38 L 14 38 L 14 39.429688 L 12 39.429688 Z M 12 38 " clip-rule="nonzero"/></clipPath></defs><path fill="#0369a1" d="M 28.472656 9.96875 L 27.414062 9.96875 L 27.414062 9.011719 C 27.039062 8.816406 26.613281 8.707031 26.160156 8.707031 C 24.648438 8.707031 23.414062 9.945312 23.414062 11.453125 L 23.414062 30.613281 C 23.414062 32.125 24.648438 33.363281 26.160156 33.363281 C 27.605469 33.363281 28.800781 32.230469 28.902344 30.808594 C 29.226562 30.917969 29.574219 30.980469 29.9375 30.980469 C 31.6875 30.980469 33.101562 29.566406 33.101562 27.816406 C 33.101562 27.5 33.058594 27.195312 32.96875 26.902344 C 34.667969 26.28125 35.878906 24.648438 35.878906 22.734375 C 35.878906 21.632812 35.472656 20.625 34.8125 19.847656 C 35.144531 19.328125 35.335938 18.707031 35.335938 18.039062 C 35.335938 16.519531 34.332031 15.238281 32.949219 14.8125 L 30.34375 14.8125 L 30.34375 11.476562 L 31.394531 11.476562 C 30.300781 9.90625 28.925781 9.988281 28.472656 9.96875 Z M 28.285156 16.285156 L 26.46875 16.285156 L 26.46875 18.101562 L 28.285156 18.101562 Z M 31.816406 15.96875 L 30 15.96875 L 30 17.785156 L 31.816406 17.785156 Z M 29.007812 14.117188 L 27.855469 14.117188 L 27.855469 15.269531 L 29.007812 15.269531 Z M 27.265625 12.570312 L 26.113281 12.570312 L 26.113281 13.722656 L 27.265625 13.722656 Z M 29.621094 10.558594 L 28.46875 10.558594 L 28.46875 11.714844 L 29.621094 11.714844 Z M 29.621094 10.558594 " fill-opacity="1" fill-rule="evenodd"/><g clip-path="url(#c6e37f1828)"><path fill="#0369a1" d="M 36.5 5.246094 L 33.707031 5.246094 L 33.707031 8.042969 L 36.5 8.042969 Z M 36.5 5.246094 " fill-opacity="1" fill-rule="evenodd"/></g><path fill="#0369a1" d="M 32.601562 7.480469 L 30.835938 7.480469 L 30.835938 9.246094 L 32.601562 9.246094 Z M 32.601562 7.480469 " fill-opacity="1" fill-rule="evenodd"/><path fill="#0369a1" d="M 35.9375 11.796875 L 34.171875 11.796875 L 34.171875 13.566406 L 35.9375 13.566406 Z M 35.9375 11.796875 " fill-opacity="1" fill-rule="evenodd"/><g clip-path="url(#d18e418f0f)"><path fill="#0369a1" d="M 33.09375 2.804688 L 31.84375 2.804688 L 31.84375 4.054688 L 33.09375 4.054688 Z M 33.09375 2.804688 " fill-opacity="1" fill-rule="evenodd"/></g><path fill="#0369a1" d="M 30.53125 4.414062 L 29.082031 4.414062 L 29.082031 5.863281 L 30.53125 5.863281 Z M 30.53125 4.414062 " fill-opacity="1" fill-rule="evenodd"/><path fill="#0369a1" d="M 34.914062 9.242188 L 33.660156 9.242188 L 33.660156 10.488281 L 34.914062 10.488281 Z M 34.914062 9.242188 " fill-opacity="1" fill-rule="evenodd"/><path fill="#0369a1" d="M 29.050781 7.890625 L 28.101562 7.890625 L 28.101562 8.839844 L 29.050781 8.839844 Z M 29.050781 7.890625 " fill-opacity="1" fill-rule="evenodd"/><path fill="#0369a1" d="M 33.203125 12.007812 L 30.824219 12.007812 L 30.824219 14.386719 L 33.203125 14.386719 Z M 33.203125 12.007812 " fill-opacity="1" fill-rule="evenodd"/><g clip-path="url(#cf1a5f7705)"><path fill="#143151" d="M 17.3125 32.097656 L 18.371094 32.097656 L 18.371094 33.054688 C 18.746094 33.25 19.171875 33.363281 19.621094 33.363281 C 21.132812 33.363281 22.371094 32.125 22.371094 30.613281 L 22.371094 11.453125 C 22.371094 9.945312 21.132812 8.707031 19.621094 8.707031 C 18.175781 8.707031 16.984375 9.839844 16.882812 11.261719 C 16.554688 11.148438 16.207031 11.085938 15.84375 11.085938 C 14.097656 11.085938 12.679688 12.503906 12.679688 14.25 C 12.679688 14.570312 12.726562 14.875 12.8125 15.164062 C 11.117188 15.785156 9.902344 17.421875 9.902344 19.332031 C 9.902344 20.433594 10.304688 21.445312 10.972656 22.222656 C 10.636719 22.742188 10.449219 23.363281 10.449219 24.027344 C 10.449219 25.546875 11.449219 26.832031 12.835938 27.253906 L 15.4375 27.253906 L 15.4375 30.589844 L 14.386719 30.589844 C 15.484375 32.160156 16.855469 32.082031 17.3125 32.097656 Z M 17.5 25.78125 L 19.3125 25.78125 L 19.3125 23.964844 L 17.5 23.964844 Z M 13.964844 26.097656 L 15.785156 26.097656 L 15.785156 24.285156 L 13.964844 24.285156 Z M 16.773438 27.949219 L 17.925781 27.949219 L 17.925781 26.796875 L 16.773438 26.796875 Z M 18.515625 29.496094 L 19.671875 29.496094 L 19.671875 28.347656 L 18.515625 28.347656 Z M 16.160156 31.511719 L 17.316406 31.511719 L 17.316406 30.355469 L 16.160156 30.355469 Z M 16.160156 31.511719 " fill-opacity="1" fill-rule="evenodd"/></g><g clip-path="url(#96afa37ee9)"><path fill="#143151" d="M 12.078125 34.023438 L 9.277344 34.023438 L 9.277344 36.820312 L 12.078125 36.820312 Z M 12.078125 34.023438 " fill-opacity="1" fill-rule="evenodd"/></g><path fill="#143151" d="M 14.945312 32.820312 L 13.179688 32.820312 L 13.179688 34.585938 L 14.945312 34.585938 Z M 14.945312 32.820312 " fill-opacity="1" fill-rule="evenodd"/><g clip-path="url(#c194d5da30)"><path fill="#143151" d="M 11.609375 28.503906 L 9.84375 28.503906 L 9.84375 30.269531 L 11.609375 30.269531 Z M 11.609375 28.503906 " fill-opacity="1" fill-rule="evenodd"/></g><g clip-path="url(#379975c83a)"><path fill="#143151" d="M 13.9375 38.011719 L 12.683594 38.011719 L 12.683594 39.265625 L 13.9375 39.265625 Z M 13.9375 38.011719 " fill-opacity="1" fill-rule="evenodd"/></g><path fill="#143151" d="M 16.703125 36.207031 L 15.253906 36.207031 L 15.253906 37.652344 L 16.703125 37.652344 Z M 16.703125 36.207031 " fill-opacity="1" fill-rule="evenodd"/><path fill="#143151" d="M 12.121094 31.578125 L 10.871094 31.578125 L 10.871094 32.828125 L 12.121094 32.828125 Z M 12.121094 31.578125 " fill-opacity="1" fill-rule="evenodd"/><path fill="#143151" d="M 17.683594 33.226562 L 16.734375 33.226562 L 16.734375 34.175781 L 17.683594 34.175781 Z M 17.683594 33.226562 " fill-opacity="1" fill-rule="evenodd"/><path fill="#143151" d="M 14.957031 27.679688 L 12.582031 27.679688 L 12.582031 30.058594 L 14.957031 30.058594 Z M 14.957031 27.679688 " fill-opacity="1" fill-rule="evenodd"/><g fill="#0369a1" fill-opacity="1"><g transform="translate(42.464516, 26.399221)"><g><path d="M 8.734375 0.328125 C 7.617188 0.328125 6.582031 0.128906 5.625 -0.265625 C 4.664062 -0.671875 3.828125 -1.234375 3.109375 -1.953125 C 2.398438 -2.671875 1.847656 -3.507812 1.453125 -4.46875 C 1.066406 -5.4375 0.875 -6.484375 0.875 -7.609375 C 0.875 -8.734375 1.066406 -9.78125 1.453125 -10.75 C 1.847656 -11.726562 2.398438 -12.578125 3.109375 -13.296875 C 3.828125 -14.015625 4.664062 -14.570312 5.625 -14.96875 C 6.582031 -15.375 7.617188 -15.578125 8.734375 -15.578125 C 9.960938 -15.578125 11.09375 -15.320312 12.125 -14.8125 C 13.15625 -14.300781 14.019531 -13.585938 14.71875 -12.671875 C 15.414062 -11.753906 15.882812 -10.695312 16.125 -9.5 L 12.8125 -9.5 C 12.5 -10.394531 11.976562 -11.109375 11.25 -11.640625 C 10.53125 -12.171875 9.691406 -12.4375 8.734375 -12.4375 C 7.878906 -12.4375 7.109375 -12.222656 6.421875 -11.796875 C 5.742188 -11.367188 5.203125 -10.789062 4.796875 -10.0625 C 4.398438 -9.332031 4.203125 -8.515625 4.203125 -7.609375 C 4.203125 -6.691406 4.398438 -5.875 4.796875 -5.15625 C 5.203125 -4.4375 5.742188 -3.863281 6.421875 -3.4375 C 7.109375 -3.019531 7.878906 -2.8125 8.734375 -2.8125 C 9.734375 -2.8125 10.597656 -3.09375 11.328125 -3.65625 C 12.054688 -4.226562 12.554688 -5 12.828125 -5.96875 L 16.15625 -5.96875 C 15.925781 -4.707031 15.46875 -3.601562 14.78125 -2.65625 C 14.09375 -1.707031 13.226562 -0.972656 12.1875 -0.453125 C 11.144531 0.0664062 9.992188 0.328125 8.734375 0.328125 Z M 8.734375 0.328125 "/></g></g></g><g fill="#0369a1" fill-opacity="1"><g transform="translate(61.047406, 26.399221)"><g><path d="M 8.96875 0.328125 C 7.8125 0.328125 6.738281 0.128906 5.75 -0.265625 C 4.757812 -0.671875 3.894531 -1.234375 3.15625 -1.953125 C 2.425781 -2.671875 1.859375 -3.507812 1.453125 -4.46875 C 1.046875 -5.4375 0.84375 -6.488281 0.84375 -7.625 C 0.84375 -8.757812 1.046875 -9.804688 1.453125 -10.765625 C 1.859375 -11.734375 2.425781 -12.578125 3.15625 -13.296875 C 3.894531 -14.015625 4.757812 -14.570312 5.75 -14.96875 C 6.738281 -15.375 7.8125 -15.578125 8.96875 -15.578125 C 10.132812 -15.578125 11.207031 -15.375 12.1875 -14.96875 C 13.175781 -14.570312 14.035156 -14.015625 14.765625 -13.296875 C 15.492188 -12.578125 16.0625 -11.734375 16.46875 -10.765625 C 16.875 -9.804688 17.078125 -8.757812 17.078125 -7.625 C 17.078125 -6.488281 16.875 -5.4375 16.46875 -4.46875 C 16.0625 -3.507812 15.492188 -2.671875 14.765625 -1.953125 C 14.035156 -1.234375 13.175781 -0.671875 12.1875 -0.265625 C 11.207031 0.128906 10.132812 0.328125 8.96875 0.328125 Z M 8.96875 -2.78125 C 9.882812 -2.78125 10.703125 -2.988281 11.421875 -3.40625 C 12.140625 -3.832031 12.707031 -4.410156 13.125 -5.140625 C 13.539062 -5.867188 13.75 -6.695312 13.75 -7.625 C 13.75 -8.539062 13.539062 -9.363281 13.125 -10.09375 C 12.707031 -10.832031 12.140625 -11.410156 11.421875 -11.828125 C 10.703125 -12.242188 9.882812 -12.453125 8.96875 -12.453125 C 8.070312 -12.453125 7.257812 -12.242188 6.53125 -11.828125 C 5.800781 -11.410156 5.226562 -10.832031 4.8125 -10.09375 C 4.394531 -9.363281 4.1875 -8.539062 4.1875 -7.625 C 4.1875 -6.707031 4.394531 -5.878906 4.8125 -5.140625 C 5.226562 -4.410156 5.800781 -3.832031 6.53125 -3.40625 C 7.257812 -2.988281 8.070312 -2.78125 8.96875 -2.78125 Z M 8.96875 -2.78125 "/></g></g></g><g fill="#0369a1" fill-opacity="1"><g transform="translate(80.763118, 26.399221)"><g><path d="M 8.421875 -7.96875 L 16.546875 -7.96875 C 16.535156 -6.769531 16.34375 -5.664062 15.96875 -4.65625 C 15.59375 -3.644531 15.054688 -2.769531 14.359375 -2.03125 C 13.671875 -1.289062 12.851562 -0.710938 11.90625 -0.296875 C 10.957031 0.117188 9.90625 0.328125 8.75 0.328125 C 7.632812 0.328125 6.597656 0.132812 5.640625 -0.25 C 4.679688 -0.644531 3.84375 -1.195312 3.125 -1.90625 C 2.40625 -2.625 1.847656 -3.46875 1.453125 -4.4375 C 1.066406 -5.414062 0.875 -6.472656 0.875 -7.609375 C 0.875 -8.753906 1.066406 -9.804688 1.453125 -10.765625 C 1.835938 -11.734375 2.378906 -12.578125 3.078125 -13.296875 C 3.785156 -14.015625 4.617188 -14.570312 5.578125 -14.96875 C 6.535156 -15.375 7.570312 -15.578125 8.6875 -15.578125 C 9.945312 -15.578125 11.113281 -15.328125 12.1875 -14.828125 C 13.269531 -14.335938 14.171875 -13.65625 14.890625 -12.78125 C 15.617188 -11.914062 16.097656 -10.910156 16.328125 -9.765625 L 12.9375 -9.765625 C 12.613281 -10.585938 12.070312 -11.238281 11.3125 -11.71875 C 10.5625 -12.195312 9.707031 -12.4375 8.75 -12.4375 C 7.851562 -12.4375 7.0625 -12.226562 6.375 -11.8125 C 5.695312 -11.40625 5.164062 -10.84375 4.78125 -10.125 C 4.394531 -9.40625 4.203125 -8.566406 4.203125 -7.609375 C 4.203125 -6.660156 4.390625 -5.828125 4.765625 -5.109375 C 5.148438 -4.390625 5.679688 -3.828125 6.359375 -3.421875 C 7.046875 -3.015625 7.84375 -2.8125 8.75 -2.8125 C 9.738281 -2.8125 10.625 -3.050781 11.40625 -3.53125 C 12.195312 -4.007812 12.726562 -4.640625 13 -5.421875 L 8.421875 -5.421875 Z M 8.421875 -7.96875 "/></g></g></g><g fill="#0369a1" fill-opacity="1"><g transform="translate(99.912419, 26.399221)"><g><path d="M 11.40625 -15.25 L 14.640625 -15.25 L 14.640625 0 L 11.890625 0 L 4.984375 -9.515625 L 4.984375 0 L 1.75 0 L 1.75 -15.25 L 4.71875 -15.25 L 11.40625 -5.953125 Z M 11.40625 -15.25 "/></g></g></g><g fill="#0369a1" fill-opacity="1"><g transform="translate(118.081398, 26.399221)"><g><path d="M 1.75 0 L 1.75 -15.25 L 5.046875 -15.25 L 5.046875 0 Z M 1.75 0 "/></g></g></g><g fill="#0369a1" fill-opacity="1"><g transform="translate(126.664948, 26.399221)"><g><path d="M 10.84375 -12.171875 L 5.046875 -12.171875 L 5.046875 -8.828125 L 10.28125 -8.828125 L 10.28125 -5.84375 L 5.046875 -5.84375 L 5.046875 0 L 1.75 0 L 1.75 -15.25 L 10.84375 -15.25 Z M 10.84375 -12.171875 "/></g></g></g><g fill="#0369a1" fill-opacity="1"><g transform="translate(140.106565, 26.399221)"><g><path d="M 14.4375 -15.25 L 9.078125 -6.171875 L 9.078125 0 L 5.6875 0 L 5.6875 -6.1875 L 0.375 -15.25 L 3.875 -15.25 L 7.40625 -9.140625 L 10.9375 -15.25 Z M 14.4375 -15.25 "/></g></g></g><g fill="#143151" fill-opacity="1"><g transform="translate(85.297968, 39.01557)"><g><path d="M 1.703125 -0.765625 L 4.578125 -0.765625 L 4.578125 0 L 0.890625 0 L 0.890625 -6.53125 L 1.703125 -6.53125 Z M 1.703125 -0.765625 "/></g></g></g><g fill="#143151" fill-opacity="1"><g transform="translate(90.253053, 39.01557)"><g><path d="M 8.5 0 L 7.671875 0 L 6.828125 -5.109375 L 4.578125 -0.171875 L 4.359375 -0.171875 L 2.09375 -5.09375 L 1.25 0 L 0.40625 0 L 1.515625 -6.53125 L 2.296875 -6.53125 L 4.453125 -1.734375 L 6.625 -6.53125 L 7.421875 -6.53125 Z M 8.5 0 "/></g></g></g><g fill="#143151" fill-opacity="1"><g transform="translate(99.360604, 39.01557)"><g><path d="M 2.828125 0.078125 C 2.359375 0.078125 1.941406 -0.00390625 1.578125 -0.171875 C 1.210938 -0.335938 0.925781 -0.578125 0.71875 -0.890625 C 0.519531 -1.210938 0.421875 -1.585938 0.421875 -2.015625 L 1.265625 -2.015625 C 1.265625 -1.609375 1.410156 -1.289062 1.703125 -1.0625 C 2.003906 -0.832031 2.378906 -0.71875 2.828125 -0.71875 C 3.097656 -0.71875 3.34375 -0.757812 3.5625 -0.84375 C 3.789062 -0.9375 3.96875 -1.066406 4.09375 -1.234375 C 4.226562 -1.410156 4.296875 -1.613281 4.296875 -1.84375 C 4.296875 -2.101562 4.21875 -2.300781 4.0625 -2.4375 C 3.914062 -2.582031 3.71875 -2.691406 3.46875 -2.765625 C 3.21875 -2.847656 2.953125 -2.921875 2.671875 -2.984375 C 2.421875 -3.046875 2.171875 -3.113281 1.921875 -3.1875 C 1.671875 -3.257812 1.441406 -3.359375 1.234375 -3.484375 C 1.023438 -3.617188 0.859375 -3.789062 0.734375 -4 C 0.609375 -4.207031 0.546875 -4.472656 0.546875 -4.796875 C 0.546875 -5.359375 0.75 -5.800781 1.15625 -6.125 C 1.5625 -6.445312 2.097656 -6.609375 2.765625 -6.609375 C 3.441406 -6.609375 3.972656 -6.429688 4.359375 -6.078125 C 4.753906 -5.734375 4.953125 -5.269531 4.953125 -4.6875 L 4.140625 -4.6875 C 4.140625 -5.039062 4.007812 -5.316406 3.75 -5.515625 C 3.488281 -5.722656 3.160156 -5.828125 2.765625 -5.828125 C 2.367188 -5.828125 2.035156 -5.738281 1.765625 -5.5625 C 1.503906 -5.382812 1.375 -5.140625 1.375 -4.828125 C 1.375 -4.585938 1.445312 -4.398438 1.59375 -4.265625 C 1.738281 -4.128906 1.929688 -4.019531 2.171875 -3.9375 C 2.410156 -3.863281 2.671875 -3.796875 2.953125 -3.734375 C 3.210938 -3.671875 3.46875 -3.597656 3.71875 -3.515625 C 3.976562 -3.441406 4.210938 -3.335938 4.421875 -3.203125 C 4.640625 -3.078125 4.8125 -2.90625 4.9375 -2.6875 C 5.070312 -2.46875 5.140625 -2.191406 5.140625 -1.859375 C 5.140625 -1.441406 5.035156 -1.085938 4.828125 -0.796875 C 4.628906 -0.515625 4.351562 -0.296875 4 -0.140625 C 3.65625 0.00390625 3.265625 0.078125 2.828125 0.078125 Z M 2.828125 0.078125 "/></g></g></g></svg>